<svg id="Layer_1" data-name="Layer 1" xmlns="http://www.w3.org/2000/svg" viewBox="0 0 161.74 160.97"><title>GearIcon</title><path d="M512.65,424.35l-1.58-7.75-1.62-7.73A1.59,1.59,0,0,0,508,407.6l-15.27-.71a2.47,2.47,0,0,1-2.14-1.49q-1.1-2.5-2.39-4.89a2.45,2.45,0,0,1,0-2.39l8.25-14.53a1.62,1.62,0,0,0-.24-1.91L490.65,376l-5.53-5.63a1.6,1.6,0,0,0-1.94-.26l-13.24,7.67a2.48,2.48,0,0,1-2.61-.1q-2.26-1.51-4.65-2.83a2.47,2.47,0,0,1-1.28-2l-.91-16.68a1.6,1.6,0,0,0-1.24-1.47l-7.71-1.78-7.7-1.74a1.6,1.6,0,0,0-1.78.82l-7,13.6a2.44,2.44,0,0,1-2.23,1.33h-1.1c-1.46,0-2.91.06-4.35.16a2.48,2.48,0,0,1-2.18-1l-9.79-13.54a1.58,1.58,0,0,0-1.83-.57l-7.46,2.67-7.42,2.7a1.59,1.59,0,0,0-1,1.65l1.47,15.23a2.48,2.48,0,0,1-1.17,2.33q-2.31,1.43-4.49,3.05a2.44,2.44,0,0,1-2.37.33l-15.56-6.1a1.6,1.6,0,0,0-1.85.51l-4.83,6.28-4.79,6.28a1.61,1.61,0,0,0,0,2l9.47,12a2.46,2.46,0,0,1,.27,2.59c-.78,1.64-1.49,3.3-2.14,5A2.47,2.47,0,0,1,369.9,410l-16.38,3.27a1.61,1.61,0,0,0-1.28,1.43l-.67,7.89-.62,7.87a1.59,1.59,0,0,0,1.07,1.64l14.45,5a2.47,2.47,0,0,1,1.63,2q.34,2.72.92,5.36a2.48,2.48,0,0,1-.68,2.3l-12,11.61a1.59,1.59,0,0,0-.3,1.9l3.7,7,3.72,7a1.59,1.59,0,0,0,1.79.79l14.87-3.62a2.45,2.45,0,0,1,2.48.83c1.16,1.38,2.38,2.72,3.65,4a2.49,2.49,0,0,1,.67,2.3l-3.83,16.28a1.61,1.61,0,0,0,.77,1.76l6.9,3.88,6.9,3.84a1.58,1.58,0,0,0,1.93-.29L410.12,493a2.47,2.47,0,0,1,2.53-.64c1.72.54,3.48,1,5.26,1.4a2.46,2.46,0,0,1,1.8,1.58L425.28,511a1.6,1.6,0,0,0,1.6,1.06l7.91-.46,7.88-.5a1.59,1.59,0,0,0,1.47-1.29l2.87-15a2.46,2.46,0,0,1,1.78-1.91q2.64-.72,5.18-1.67a2.46,2.46,0,0,1,2.37.35l13.2,10.23a1.59,1.59,0,0,0,1.92,0l6.4-4.66,6.36-4.68a1.59,1.59,0,0,0,.54-1.88l-5.71-14.2a2.47,2.47,0,0,1,.47-2.57q1.82-2,3.45-4.19a2.44,2.44,0,0,1,2.18-1l16.65,1.47a1.61,1.61,0,0,0,1.64-1l2.86-7.38,2.82-7.37a1.6,1.6,0,0,0-.57-1.88l-12.47-8.85a2.47,2.47,0,0,1-1-2.42c.28-1.77.5-3.57.64-5.39a2.46,2.46,0,0,1,1.3-2l14.79-7.76A1.61,1.61,0,0,0,512.65,424.35ZM434.2,478a47,47,0,1,1,44.46-44.46A47,47,0,0,1,434.2,478Z" transform="translate(-350.94 -351.13)"/><circle cx="80.81" cy="79.94" r="20.33"/></svg>